HIERARCHY
ROOT root
{
	OFFSET	0	13.1	24.9
	CHANNELS 6  Xposition Yposition Zposition Xrotation Yrotation Zrotation
	JOINT spine_1
	{
		OFFSET	0	9.99999	0
		CHANNELS 3  Xrotation Yrotation Zrotation
		JOINT spine_2
		{
			OFFSET	0	112	-10
			CHANNELS 3  Xrotation Yrotation Zrotation
			JOINT spine_3
			{
				OFFSET	0	206.5	19.3
				CHANNELS 3  Xrotation Yrotation Zrotation
				JOINT spine_4
				{
					OFFSET	0	110.4	14.6
					CHANNELS 3  Xrotation Yrotation Zrotation
					JOINT neck_1
					{
						OFFSET	0	71.8	-50.3
						CHANNELS 3  Xrotation Yrotation Zrotation
						JOINT neck_2
						{
							OFFSET	0	86.2	-25.8
							CHANNELS 3  Xrotation Yrotation Zrotation
							JOINT head_ee
							{
								OFFSET	0	179.8	-8.7
								CHANNELS 3  Xrotation Yrotation Zrotation
								End Site
								{
									OFFSET	1	0	0
								}
							}
						}
					}
					JOINT left_clavicle
					{
						OFFSET	-43.2	22.4	-70.8
						CHANNELS 3  Xrotation Yrotation Zrotation
						JOINT left_shoulder
						{
							OFFSET	-93.9	-5.79999	48.7
							CHANNELS 3  Xrotation Yrotation Zrotation
							JOINT left_elbow
							{
								OFFSET	-291.4	-30.8	15.2
								CHANNELS 3  Xrotation Yrotation Zrotation
								JOINT left_lowarm_twist
								{
									OFFSET	-110.7	-3.89999	13.6
									CHANNELS 3  Xrotation Yrotation Zrotation
									JOINT left_hand
									{
										OFFSET	-110.7	-3.89999	13.6
										CHANNELS 3  Xrotation Yrotation Zrotation
										JOINT left_ee
										{
											OFFSET	-80.8	-5.10001	12.1
											CHANNELS 3  Xrotation Yrotation Zrotation
											End Site
											{
												OFFSET	1	0	0
											}
										}
									}
								}
							}
						}
					}
					JOINT right_clavicle
					{
						OFFSET	43.2	22.4	-70.8
						CHANNELS 3  Xrotation Yrotation Zrotation
						JOINT right_shoulder
						{
							OFFSET	93.9	-5.79999	48.7
							CHANNELS 3  Xrotation Yrotation Zrotation
							JOINT right_elbow
							{
								OFFSET	291.4	-30.8	15.2
								CHANNELS 3  Xrotation Yrotation Zrotation
								JOINT right_lowarm_twist
								{
									OFFSET	110.7	-3.89999	13.6
									CHANNELS 3  Xrotation Yrotation Zrotation
									JOINT right_hand
									{
										OFFSET	110.7	-3.89999	13.6
										CHANNELS 3  Xrotation Yrotation Zrotation
										JOINT right_ee
										{
											OFFSET	80.8	-5.10001	12.1
											CHANNELS 3  Xrotation Yrotation Zrotation
											End Site
											{
												OFFSET	1	0	0
											}
										}
									}
								}
							}
						}
					}
				}
			}
		}
	}
	JOINT left_hip
	{
		OFFSET	-82.8	-127.5	0.300001
		CHANNELS 3  Xrotation Yrotation Zrotation
		JOINT left_knee
		{
			OFFSET	-28.2	-396.7	2.2
			CHANNELS 3  Xrotation Yrotation Zrotation
			JOINT left_ankle
			{
				OFFSET	-11.7	-411.3	35.4
				CHANNELS 3  Xrotation Yrotation Zrotation
				JOINT left_toes
				{
					OFFSET	0	-60	-88.6
					CHANNELS 3  Xrotation Yrotation Zrotation
					JOINT left_foot_ee
					{
						OFFSET	-22.5	-16.5	-42.2
						CHANNELS 3  Xrotation Yrotation Zrotation
						End Site
						{
							OFFSET	1	0	0
						}
					}
				}
			}
		}
	}
	JOINT right_hip
	{
		OFFSET	82.8	-127.5	0.300001
		CHANNELS 3  Xrotation Yrotation Zrotation
		JOINT right_knee
		{
			OFFSET	28.2	-396.7	2.2
			CHANNELS 3  Xrotation Yrotation Zrotation
			JOINT right_ankle
			{
				OFFSET	11.7	-411.3	35.4
				CHANNELS 3  Xrotation Yrotation Zrotation
				JOINT right_toes
				{
					OFFSET	0	-60	-88.6
					CHANNELS 3  Xrotation Yrotation Zrotation
					JOINT right_foot_ee
					{
						OFFSET	22.5	-16.5	-42.2
						CHANNELS 3  Xrotation Yrotation Zrotation
						End Site
						{
							OFFSET	1	0	0
						}
					}
				}
			}
		}
	}
}
MOTION
Frames: 11
Frame Time: 0.02
1338.02 625.972 -571.929 86.1629 -85.8268 88.4117 -5.3342 -0.0182764 -1.12788 -5.33349 0.0535261 -1.12676 -5.33341 0.389293 -1.05874 -5.33491 0.217211 -1.10692 3.14018 6.91736 4.73433 3.22904 7.99444 5.75919 -0.0 0.0 -0.0 10.1846 11.4627 19.0297 27.8591 -23.9049 68.9781 1.40335 -34.8043 0.439861 -12.983 -0.633887 1.53067 -0.723656 15.5107 1.86362 -0.0 0.0 -0.0 10.4622 -12.6333 -19.3857 -5.81475 12.3461 -60.6744 0.759381 20.615 -0.138108 11.8418 -0.264395 1.4869 4.08857 -30.8019 -36.2717 0.0 0.0 0.0 2.53245 1.71548 -1.66048 -18.246 0.31239 2.77077 41.4883 5.59992 -4.98466 40.1568 -0.0 -0.0 -0.0 0.0 -0.0 16.04 7.14886 -9.20415 -62.5361 2.47997 -8.79877 38.167 -21.0588 4.88001 13.1885 -0.0 -0.0 0.0 0.0 0.0 
1354.03 629.528 -574.243 85.5683 -87.0966 88.1881 -4.85503 0.0126769 -1.31191 -4.85408 0.0961242 -1.30845 -4.85491 0.474291 -1.22325 -4.85689 0.275166 -1.2828 3.67038 4.70567 5.34187 3.74077 3.5522 6.3027 -0.0 0.0 -0.0 10.2429 11.0163 19.1923 29.7984 -24.6282 69.71 1.49361 -36.4951 0.492474 -12.1197 -0.581082 1.43363 -0.115952 14.2646 5.12474 -0.0 0.0 -0.0 10.2718 -14.8954 -18.7229 -7.02728 11.9434 -60.0564 0.735182 20.011 -0.129707 9.30338 -0.233712 1.16414 3.53192 -30.457 -32.4903 0.0 0.0 0.0 2.17172 0.252879 -1.87571 -16.973 0.319394 2.57558 41.1833 5.60034 -4.95912 40.1474 -0.0 -0.0 -0.0 0.0 -0.0 17.9705 7.64309 -9.59544 -59.4161 2.13727 -8.46081 40.4041 -18.9296 5.04143 13.4302 -0.0 -0.0 0.0 0.0 0.0 
1373.82 630.527 -576.091 81.9261 -86.8913 84.7275 -4.71362 -0.0898475 -1.4088 -4.71252 -2.89216e-05 -1.41166 -4.71077 0.409088 -1.3511 -4.71327 0.190595 -1.39874 4.09325 5.76997 5.5957 4.17523 5.11943 6.66115 -0.0 0.0 -0.0 10.5143 10.8328 19.7204 30.977 -24.7524 69.6015 1.55649 -37.6309 0.530369 -11.3426 -0.534815 1.34563 0.154012 12.1928 6.00411 -0.0 0.0 -0.0 9.94177 -16.6372 -17.8951 -8.12897 11.3041 -59.4495 0.751193 20.4111 -0.135238 8.50725 -0.221146 1.06322 3.25803 -30.2143 -30.6842 0.0 0.0 0.0 0.855572 0.894435 -2.10584 -17.3204 0.317913 2.62887 41.4201 6.27681 -4.98015 40.1653 -0.0 -0.0 -0.0 0.0 -0.0 22.1684 8.43518 -10.3239 -57.2414 1.90959 -8.21456 41.9138 -14.9752 5.10013 14.9361 -0.0 -0.0 0.0 0.0 0.0 
1391.49 632.335 -573.627 81.1001 -87.5282 84.1764 -4.34281 -0.065204 -1.54462 -4.34148 0.0332043 -1.54564 -4.34046 0.470239 -1.47276 -4.34341 0.231771 -1.52853 5.57477 5.47116 5.83724 5.65615 4.18841 6.96082 -0.0 0.0 -0.0 10.6353 10.8982 19.9384 32.3227 -25.5614 70.2429 1.66491 -39.5109 0.59798 -10.13 -0.465014 1.20707 0.504767 10.3406 7.52626 -0.0 0.0 -0.0 9.82157 -18.1425 -17.4664 -9.77382 10.4157 -58.8243 0.79148 21.4089 -0.149617 7.77276 -0.20831 0.970273 2.97529 -30.1606 -28.8824 0.0 0.0 0.0 -0.745868 1.18214 -3.02867 -15.2477 0.321962 2.31089 40.3641 2.61039 -4.8931 40.0144 -0.0 -0.0 -0.0 0.0 -0.0 27.6522 7.87865 -9.49187 -54.0627 1.5941 -7.8397 41.387 -12.7007 5.02312 12.6614 -0.0 -0.0 0.0 0.0 0.0 
1406.7 634.779 -571.608 107.717 -88.0633 110.963 -4.1677 -0.137053 -1.85609 -4.16578 -0.0186879 -1.86105 -4.16235 0.504403 -1.79151 -4.16676 0.215189 -1.84866 5.27602 5.81672 6.33319 5.37193 4.38274 7.53609 -0.0 0.0 -0.0 10.6258 10.9379 19.9154 33.5562 -26.097 70.6917 1.78897 -41.5436 0.678605 -8.39635 -0.370369 1.00654 0.970736 6.90338 9.24021 -0.0 0.0 -0.0 9.71345 -20.2467 -16.9591 -11.5718 9.56629 -58.1552 0.858989 23.0504 -0.17516 6.57089 -0.184739 0.818558 2.6321 -29.9173 -26.7149 0.0 0.0 0.0 -1.38807 3.55976 -4.25673 -13.8679 0.31828 2.09922 40.1 1.84636 -4.87354 39.2262 -0.0 -0.0 -0.0 0.0 -0.0 30.3181 8.0849 -8.04131 -49.6792 1.19435 -7.29568 40.3568 -9.72972 4.90568 11.366 -0.0 -0.0 0.0 0.0 0.0 
1427.13 636.521 -567.564 66.1355 -88.3066 70.0347 -3.97231 -0.201825 -1.96475 -3.97016 -0.0764185 -1.9736 -3.96434 0.47395 -1.9174 -3.96943 0.165247 -1.96816 6.05848 6.04398 5.30266 6.13416 5.57249 6.37873 -0.0 0.0 -0.0 10.5708 10.9912 19.8057 34.5526 -26.71 70.9245 1.9202 -43.563 0.767364 -7.25756 -0.311526 0.873313 1.5641 4.71637 12.3597 -0.0 0.0 -0.0 9.4811 -21.6614 -16.3654 -13.5594 8.78919 -57.5528 0.89796 23.9803 -0.19071 6.4591 -0.182384 0.804472 2.42785 -29.8647 -25.4614 0.0 0.0 0.0 -2.71025 3.69453 -5.0296 -13.5254 0.316577 2.0467 40.9285 2.25065 -4.94223 39.9259 -0.0 -0.0 -0.0 0.0 -0.0 32.2924 8.45765 -7.14032 -46.2891 0.91455 -6.85522 37.6566 -6.85756 4.65089 11.8737 -0.0 -0.0 0.0 0.0 0.0 
1445.6 634.413 -564.196 69.6496 -87.4252 73.8642 -4.05001 -0.291477 -2.12515 -4.04751 -0.15569 -2.13938 -4.03774 0.446441 -2.09809 -4.04387 0.109565 -2.14224 5.21949 5.66671 4.17607 5.27971 6.03618 5.05338 -0.0 0.0 -0.0 10.3881 11.0614 19.4563 35.6535 -26.9291 71.7504 2.11952 -46.3901 0.908296 -5.66352 -0.233642 0.684945 2.0754 3.68691 15.4456 -0.0 0.0 -0.0 9.1617 -22.1884 -15.7926 -15.1888 8.67544 -57.3403 1.00275 26.4146 -0.235333 6.86559 -0.190813 0.855713 2.53762 -29.9226 -26.1384 0.0 0.0 0.0 -4.0701 5.81579 -5.79073 -15.6709 0.32207 2.37582 41.0006 3.24728 -4.94518 38.3034 -0.0 -0.0 -0.0 0.0 -0.0 33.8604 8.96395 -6.31964 -43.1742 0.680958 -6.43683 33.9971 -6.36165 4.30031 12.5789 -0.0 -0.0 0.0 0.0 0.0 
1461.29 636.478 -561.661 62.5313 -87.6465 67.0225 -3.86611 -0.387314 -2.26772 -3.86328 -0.242267 -2.28776 -3.84907 0.39713 -2.26603 -3.85623 0.0343679 -2.30029 6.08617 5.92769 3.77967 6.14908 6.72532 4.60925 -0.0 0.0 -0.0 10.2265 11.3142 19.1253 36.3688 -27.0862 72.8031 2.2208 -47.7231 0.982439 -4.91576 -0.198923 0.595861 2.33722 1.77742 16.519 -0.0 0.0 -0.0 9.117 -22.497 -15.6769 -15.7897 8.34167 -57.0652 1.01642 26.7248 -0.241446 6.11447 -0.174954 0.761075 2.15919 -29.7204 -23.8201 0.0 0.0 0.0 -4.69572 6.62436 -6.30747 -15.7269 0.322048 2.38441 40.9312 4.19295 -4.93775 37.8779 -0.0 -0.0 -0.0 0.0 -0.0 34.1298 9.63311 -5.22729 -35.1264 0.186168 -5.30408 32.2662 -6.9444 4.12615 10.6213 -0.0 -0.0 0.0 0.0 0.0 
1479.63 637.136 -558.864 59.1797 -87.265 63.8971 -3.91938 -0.53426 -2.38745 -3.91629 -0.381303 -2.41659 -3.89484 0.300798 -2.42792 -3.90306 -0.0863023 -2.44495 5.96577 5.83836 3.54266 6.02698 6.79827 4.33156 -0.0 0.0 -0.0 10.1704 12.4773 18.8754 37.1568 -27.2178 74.3414 2.3919 -49.8292 1.11115 -4.27783 -0.170227 0.519516 2.50264 0.0146095 16.9785 -0.0 0.0 -0.0 9.16389 -22.3915 -15.7642 -16.3194 7.06862 -56.4317 1.00834 26.5417 -0.237826 6.86536 -0.190808 0.855684 2.08394 -29.6701 -23.3621 0.0 0.0 0.0 -5.99621 7.22906 -7.45058 -16.3582 0.321223 2.48127 41.6739 7.74049 -5.00632 37.1659 -0.0 -0.0 -0.0 0.0 -0.0 35.2003 9.91884 -3.97551 -28.7375 -0.0903497 -4.36321 29.2388 -7.37036 3.8069 8.56102 -0.0 -0.0 0.0 0.0 0.0 
1497.4 639.029 -555.777 54.6006 -87.0579 59.5325 -3.96712 -0.67534 -2.50229 -3.96378 -0.514797 -2.54016 -3.93476 0.208309 -2.58339 -3.94401 -0.202163 -2.58388 7.24544 5.35891 2.53474 7.30054 6.74275 3.13234 -0.0 0.0 -0.0 9.79512 14.0209 18.0036 37.0667 -27.3231 76.0066 2.59828 -52.1465 1.27155 -4.37987 -0.17476 0.531748 2.63154 -1.16507 17.4091 -0.0 0.0 -0.0 9.29735 -22.1634 -16.0028 -17.1132 6.48854 -56.2071 0.992259 26.1753 -0.230686 7.18743 -0.197228 0.896324 1.91639 -29.5835 -22.3534 0.0 0.0 0.0 -6.43762 7.49197 -8.41097 -18.8976 0.307128 2.8706 41.3322 11.6042 -5.00614 37.1959 -0.0 -0.0 -0.0 0.0 -0.0 35.3839 9.88331 -3.15251 -23.84 -0.23032 -3.62488 26.5557 -6.78976 3.50895 5.92457 -0.0 -0.0 0.0 0.0 0.0 
1518.1 637.341 -554.06 52.0556 -86.8207 56.6125 -4.03096 -0.810166 -2.32188 -4.0282 -0.660819 -2.36869 -3.99514 0.0229696 -2.45898 -4.00339 -0.365553 -2.43179 6.94288 4.83603 2.05551 6.98988 6.32004 2.5582 -0.0 0.0 -0.0 9.53998 15.9928 17.3015 37.186 -27.4694 77.2994 2.908 -55.2214 1.52119 -4.6118 -0.185144 0.559523 2.59599 -1.88161 16.8679 -0.0 0.0 -0.0 9.24859 -21.5725 -16.0212 -17.4797 6.65199 -56.3148 0.977457 25.836 -0.224196 7.54572 -0.204101 0.941576 1.84253 -29.5332 -21.9082 0.0 0.0 0.0 -6.6588 7.6295 -8.68078 -23.0073 0.247816 3.49829 41.306 12.278 -5.01122 37.5458 -0.0 -0.0 -0.0 0.0 -0.0 35.0198 10.0438 -3.01198 -19.2365 -0.303942 -2.9225 21.3374 -8.41038 2.89599 3.05179 -0.0 -0.0 0.0 0.0 0.0 
